<svg aria-hidden="false" aria-label="Interactive chart" xmlns="http://www.w3.org/2000/svg" style="font-family:Roboto;font-size:12px" class="highcharts-root" viewBox="0 0 650 400">
  <defs aria-hidden="true">
    <clipPath id="a">
      <path fill="none" d="M0 0h577v278H0z"/>
    </clipPath>
  </defs>
  <rect aria-hidden="true" ry="0" rx="0" height="400" width="650" class="highcharts-background" fill="#fff"/>
  <path aria-hidden="true" class="highcharts-plot-background" fill="none" d="M63 47h577v278H63z"/>
  <g aria-hidden="true" data-z-index="1" class="highcharts-grid highcharts-xaxis-grid" fill="none">
    <path d="M106.5 47v278m45-278v278m44-278v278m45-278v278m44-278v278m44-278v278m45-278v278m44-278v278m44-278v278m45-278v278m44-278v278m45-278v278m44-278v278M62.5 47v278" class="highcharts-grid-line" data-z-index="1"/>
  </g>
  <g aria-hidden="true" data-z-index="1" class="highcharts-grid highcharts-yaxis-grid" stroke="#e6e6e6" fill="none">
    <path d="M63 325.5h577m-577-69h577m-577-70h577m-577-69h577m-577-71h577" class="highcharts-grid-line" data-z-index="1"/>
  </g>
  <path aria-hidden="true" data-z-index="1" class="highcharts-plot-border" fill="none" d="M63 47h577v278H63z"/>
  <g aria-hidden="true" data-z-index="2" class="highcharts-axis highcharts-xaxis">
    <path d="M63 325.5h577" data-z-index="7" stroke="#ccd6eb" class="highcharts-axis-line" fill="none"/>
  </g>
  <g aria-hidden="true" data-z-index="2" class="highcharts-axis highcharts-yaxis">
    <text y="186" style="color:#666;fill:#666" class="highcharts-axis-title" transform="rotate(-90 24.33388138 186)" text-anchor="middle" data-z-index="7" x="24.33388138">Value</text>
    <path d="M63 47v278" data-z-index="7" class="highcharts-axis-line" fill="none"/>
  </g>
  <g aria-hidden="false" data-z-index="3" class="highcharts-series-group">
    <g aria-hidden="true" clip-path="url(#a)" data-z-index=".1" class="highcharts-series highcharts-series-0 highcharts-spline-series" transform="translate(63 47)">
      <path stroke-linecap="round" stroke-linejoin="round" stroke-width="2" stroke="#6f58e9" data-z-index="1" class="highcharts-graph" d="M22.1923077 265.4125859s26.63076922-6.63290919 44.38461538-11.5077462c17.75384615-4.87483702 26.63076923-7.30800302 44.38461538-12.86643888 17.75384616-5.55843587 26.63076923-8.4592169 44.38461539-14.92574043 17.75384615-6.46652352 26.63076923-10.05414227 44.38461538-17.40687721 17.75384615-7.35273495 26.63076923-11.453221 44.38461539-19.3567975 17.75384615-7.90357651 26.63076923-11.95386343 44.38461538-20.16108501 17.75384615-8.20722159 26.63076923-11.8386368 44.38461538-20.87502292 17.75384616-9.03638612 26.63076924-14.18876668 44.38461539-24.3069077 17.75384615-10.118141 26.63076923-15.60221287 44.38461538-26.28379737 17.75384616-10.68158451 26.63076923-16.15428624 44.38461539-27.12412515 17.75384615-10.96983891 26.63076923-20.2358308 44.38461538-27.72506941 17.75384616-7.48923862 44.38461539-9.72112367 44.38461539-9.72112367" fill="none"/>
    </g>
    <g style="outline:0" aria-label="Urbanization, line 1 of 2 with 13 data points." tabindex="-1" aria-hidden="false" data-z-index=".1" class="highcharts-markers highcharts-series-0 highcharts-spline-series" fill="#6f58e9">
      <path style="outline:0" aria-label="1965, 1,181,113,872. Urbanization." tabindex="-1" class="highcharts-point" d="M22 269a4 4 0 1 1 .004-.000002Z" transform="translate(63 47)"/>
      <path style="outline:0" aria-label="1970, 1,346,692,954. Urbanization." tabindex="-1" class="highcharts-point" d="M66 258a4 4 0 1 1 .004-.000002Z" transform="translate(63 47)"/>
      <path style="outline:0" aria-label="1975, 1,531,821,571. Urbanization." tabindex="-1" class="highcharts-point" d="M110 245a4 4 0 1 1 .004-.000002Z" transform="translate(63 47)"/>
      <path style="outline:0" aria-label="1980, 1,746,580,426. Urbanization." tabindex="-1" class="highcharts-point" d="M155 230a4 4 0 1 1 .004-.000002Z" transform="translate(63 47)"/>
      <path style="outline:0" aria-label="1985, 1,997,039,091. Urbanization." tabindex="-1" class="highcharts-point" d="M199 213a4 4 0 1 1 .004-.000002Z" transform="translate(63 47)"/>
      <path style="outline:0" aria-label="1990, 2,275,554,163. Urbanization." tabindex="-1" class="highcharts-point" d="M244 193a4 4 0 1 1 .004-.000002Z" transform="translate(63 47)"/>
      <path style="outline:0" aria-label="1995, 2,565,641,717. Urbanization." tabindex="-1" class="highcharts-point" d="M288 173a4 4 0 1 1 .004-.000002Z" transform="translate(63 47)"/>
      <path style="outline:0" aria-label="2000, 2,866,001,759. Urbanization." tabindex="-1" class="highcharts-point" d="M332 152a4 4 0 1 1 .004-.000002Z" transform="translate(63 47)"/>
      <path style="outline:0" aria-label="2005, 3,215,741,438. Urbanization." tabindex="-1" class="highcharts-point" d="M377 128a4 4 0 1 1 .004-.000002Z" transform="translate(63 47)"/>
      <path style="outline:0" aria-label="2010, 3,593,925,573. Urbanization." tabindex="-1" class="highcharts-point" d="M421 102a4 4 0 1 1 .004-.000002Z" transform="translate(63 47)"/>
      <path style="outline:0" aria-label="2015, 3,984,200,755. Urbanization." tabindex="-1" class="highcharts-point" d="M466 75a4 4 0 1 1 .004-.000002Z" transform="translate(63 47)"/>
      <path style="outline:0" aria-label="2020, 4,383,122,617. Urbanization." tabindex="-1" class="highcharts-point" d="M510 47a4 4 0 1 1 .004-.000002Z" transform="translate(63 47)"/>
      <path style="outline:0" aria-label="2022, 4,522,994,900. Urbanization." tabindex="-1" class="highcharts-point" d="M554 37a4 4 0 1 1 .004-.000002Z" transform="translate(63 47)"/>
    </g>
    <g aria-hidden="true" clip-path="url(#a)" data-z-index=".1" class="highcharts-series highcharts-series-1 highcharts-spline-series" transform="translate(63 47)">
      <path stroke-linecap="round" stroke-linejoin="round" stroke-width="2" stroke="#94d13d" data-z-index="1" class="highcharts-graph" d="M22.1923077 198.3521439s26.63076922-8.2091555 44.38461538-13.64145208c17.75384615-5.43229658 26.63076923-8.62796931 44.38461538-13.52003085 17.75384616-4.89206153 26.63076923-6.56851699 44.38461539-10.94027682C173.1 155.8786243 181.97692308 153.80365999 199.73076923 149.3318618c17.75384615-4.4717982 26.63076923-7.16349117 44.38461539-11.4404686 17.75384615-4.27697743 26.63076923-6.32153762 44.38461538-9.94441855s26.63076923-5.72103627 44.38461538-8.16998611c17.75384616-2.44894985 26.63076924-2.71732079 44.38461539-4.07476311S403.9 114.1380061 421.65384615 112.98977693c17.75384616-1.14822917 26.63076923-2.18062375 44.38461539-3.02869734 17.75384615-.8480736 26.63076923-1.21167065 44.38461538-1.21167065 17.75384616 0 44.38461539.63260137 44.38461539.63260137" fill="none"/>
    </g>
    <g style="outline:0" aria-label="Ruralization, line 2 of 2 with 13 data points." tabindex="-1" aria-hidden="false" data-z-index=".1" class="highcharts-markers highcharts-series-1 highcharts-spline-series" fill="#94d13d">
      <path style="outline:0" aria-label="1965, 2,146,012,318. Ruralization." tabindex="-1" class="highcharts-point" d="m22 194 4 4-4 4-4-4Z" transform="translate(63 47)"/>
      <path style="outline:0" aria-label="1970, 2,342,292,204. Ruralization." tabindex="-1" class="highcharts-point" d="m66 181 4 4-4 4-4-4Z" transform="translate(63 47)"/>
      <path style="outline:0" aria-label="1975, 2,536,825,022. Ruralization." tabindex="-1" class="highcharts-point" d="m110 167 4 4-4 4-4-4Z" transform="translate(63 47)"/>
      <path style="outline:0" aria-label="1980, 2,694,239,077. Ruralization." tabindex="-1" class="highcharts-point" d="m155 156 4 4-4 4-4-4Z" transform="translate(63 47)"/>
      <path style="outline:0" aria-label="1985, 2,851,340,118. Ruralization." tabindex="-1" class="highcharts-point" d="m199 145 4 4-4 4-4-4Z" transform="translate(63 47)"/>
      <path style="outline:0" aria-label="1990, 3,015,951,177. Ruralization." tabindex="-1" class="highcharts-point" d="m244 134 4 4-4 4-4-4Z" transform="translate(63 47)"/>
      <path style="outline:0" aria-label="1995, 3,159,036,336. Ruralization." tabindex="-1" class="highcharts-point" d="m288 124 4 4-4 4-4-4Z" transform="translate(63 47)"/>
      <path style="outline:0" aria-label="2000, 3,276,590,093. Ruralization." tabindex="-1" class="highcharts-point" d="m332 116 4 4-4 4-4-4Z" transform="translate(63 47)"/>
      <path style="outline:0" aria-label="2005, 3,335,219,778. Ruralization." tabindex="-1" class="highcharts-point" d="m377 112 4 4-4 4-4-4Z" transform="translate(63 47)"/>
      <path style="outline:0" aria-label="2010, 3,374,247,814. Ruralization." tabindex="-1" class="highcharts-point" d="m421 109 4 4-4 4-4-4Z" transform="translate(63 47)"/>
      <path style="outline:0" aria-label="2015, 3,417,826,193. Ruralization." tabindex="-1" class="highcharts-point" d="m466 106 4 4-4 4-4-4Z" transform="translate(63 47)"/>
      <path style="outline:0" aria-label="2020, 3,435,260,303. Ruralization." tabindex="-1" class="highcharts-point" d="m510 105 4 4-4 4-4-4Z" transform="translate(63 47)"/>
      <path style="outline:0" aria-label="2022, 3,426,158,125. Ruralization." tabindex="-1" class="highcharts-point" d="m554 105 4 4-4 4-4-4Z" transform="translate(63 47)"/>
    </g>
  </g>
  <text aria-hidden="true" y="24" style="color:#333;font-size:18px;fill:#333" data-z-index="4" class="highcharts-title" text-anchor="middle" x="325">Global Population</text>
  <g aria-hidden="true" transform="translate(220 359)" data-z-index="7" class="highcharts-legend highcharts-no-tooltip">
    <rect height="26" width="210" ry="0" rx="0" class="highcharts-legend-box" fill="none"/>
    <g data-z-index="1">
      <g data-z-index="1" class="highcharts-legend-item highcharts-spline-series highcharts-color-undefined highcharts-series-0">
        <path stroke-width="2" stroke="#6f58e9" class="highcharts-graph" d="M8 14h16" fill="none"/>
        <path class="highcharts-point" d="M16 18a4 4 0 1 1 .004-.000002Z" fill="#6f58e9"/>
        <text style="color:#333;cursor:pointer;font-size:12px;font-weight:700;fill:#333" y="15" data-z-index="2" x="21" transform="translate(8 3)">Urbanization</text>
      </g>
      <g data-z-index="1" class="highcharts-legend-item highcharts-spline-series highcharts-color-undefined highcharts-series-1">
        <path stroke-width="2" stroke="#94d13d" class="highcharts-graph" d="M117.4397049 14h16" fill="none"/>
        <path class="highcharts-point" d="m125.4397049 10 4 4-4 4-4-4Z" fill="#94d13d"/>
        <text style="color:#333;cursor:pointer;font-size:12px;font-weight:700;fill:#333" data-z-index="2" y="15" x="21" transform="translate(117.4397049 3)">Ruralization</text>
      </g>
    </g>
  </g>
  <g aria-hidden="true" data-z-index="7" class="highcharts-axis-labels highcharts-xaxis-labels" text-anchor="middle">
    <text y="344" style="color:#666;cursor:default;font-size:11px;fill:#666" x="85.19230769">1965</text>
    <text y="344" style="color:#666;cursor:default;font-size:11px;fill:#666" x="129.57692308">1970</text>
    <text y="344" style="color:#666;cursor:default;font-size:11px;fill:#666" x="173.96153846">1975</text>
    <text y="344" style="color:#666;cursor:default;font-size:11px;fill:#666" x="218.34615385">1980</text>
    <text y="344" style="color:#666;cursor:default;font-size:11px;fill:#666" x="262.73076923">1985</text>
    <text y="344" style="color:#666;cursor:default;font-size:11px;fill:#666" x="307.11538462">1990</text>
    <text y="344" style="color:#666;cursor:default;font-size:11px;fill:#666" x="351.5">1995</text>
    <text y="344" style="color:#666;cursor:default;font-size:11px;fill:#666" x="395.88461538">2000</text>
    <text y="344" style="color:#666;cursor:default;font-size:11px;fill:#666" x="440.26923077">2005</text>
    <text y="344" style="color:#666;cursor:default;font-size:11px;fill:#666" x="484.65384615">2010</text>
    <text y="344" style="color:#666;cursor:default;font-size:11px;fill:#666" x="529.03846154">2015</text>
    <text y="344" style="color:#666;cursor:default;font-size:11px;fill:#666" x="573.42307692">2020</text>
    <text y="344" style="color:#666;cursor:default;font-size:11px;fill:#666" x="617.80769231">2022</text>
  </g>
  <g aria-hidden="true" data-z-index="7" class="highcharts-axis-labels highcharts-yaxis-labels" text-anchor="end">
    <text y="329" style="color:#666;cursor:default;font-size:11px;fill:#666" x="48">1G</text>
    <text y="260" style="color:#666;cursor:default;font-size:11px;fill:#666" x="48">2G</text>
    <text y="190" style="color:#666;cursor:default;font-size:11px;fill:#666" x="48">3G</text>
    <text y="121" style="color:#666;cursor:default;font-size:11px;fill:#666" x="48">4G</text>
    <text y="51" style="color:#666;cursor:default;font-size:11px;fill:#666" x="48">5G</text>
  </g>
  <text aria-hidden="false" aria-label="Chart credits: Highcharts.com" style="cursor:pointer;color:#999;font-size:9px;fill:#999" y="395" data-z-index="8" text-anchor="end" class="highcharts-credits" x="640">Highcharts.com</text>
</svg>
