<svg aria-hidden="false" aria-label="Interactive chart" viewBox="0 0 650 400" height="400" width="650" xmlns="http://www.w3.org/2000/svg" style="font-family: Roboto; font-size: 12px;" class="highcharts-root" version="1.1" xmlns:xlink="http://www.w3.org/1999/xlink"><desc aria-hidden="true">Created with Highcharts 10.3.1</desc><defs aria-hidden="true"><clipPath id="highcharts-z112a5k-1608-"><rect fill="none" height="278" width="577" y="0" x="0"></rect></clipPath><clipPath id="highcharts-z112a5k-1622-"><rect fill="none" height="278" width="577" y="0" x="0"></rect></clipPath></defs><rect aria-hidden="true" ry="0" rx="0" height="400" width="650" y="0" x="0" class="highcharts-background" fill="#ffffff"></rect><rect aria-hidden="true" height="278" width="577" y="47" x="63" class="highcharts-plot-background" fill="none"></rect><g aria-hidden="true" data-z-index="0" class="highcharts-pane-group"></g><g aria-hidden="true" data-z-index="1" class="highcharts-grid highcharts-xaxis-grid"><path opacity="1" d="M 106.5 47 L 106.5 325" class="highcharts-grid-line" data-z-index="1" stroke-dasharray="none" fill="none"></path><path opacity="1" d="M 151.5 47 L 151.5 325" class="highcharts-grid-line" data-z-index="1" stroke-dasharray="none" fill="none"></path><path opacity="1" d="M 195.5 47 L 195.5 325" class="highcharts-grid-line" data-z-index="1" stroke-dasharray="none" fill="none"></path><path opacity="1" d="M 240.5 47 L 240.5 325" class="highcharts-grid-line" data-z-index="1" stroke-dasharray="none" fill="none"></path><path opacity="1" d="M 284.5 47 L 284.5 325" class="highcharts-grid-line" data-z-index="1" stroke-dasharray="none" fill="none"></path><path opacity="1" d="M 328.5 47 L 328.5 325" class="highcharts-grid-line" data-z-index="1" stroke-dasharray="none" fill="none"></path><path opacity="1" d="M 373.5 47 L 373.5 325" class="highcharts-grid-line" data-z-index="1" stroke-dasharray="none" fill="none"></path><path opacity="1" d="M 417.5 47 L 417.5 325" class="highcharts-grid-line" data-z-index="1" stroke-dasharray="none" fill="none"></path><path opacity="1" d="M 461.5 47 L 461.5 325" class="highcharts-grid-line" data-z-index="1" stroke-dasharray="none" fill="none"></path><path opacity="1" d="M 506.5 47 L 506.5 325" class="highcharts-grid-line" data-z-index="1" stroke-dasharray="none" fill="none"></path><path opacity="1" d="M 550.5 47 L 550.5 325" class="highcharts-grid-line" data-z-index="1" stroke-dasharray="none" fill="none"></path><path opacity="1" d="M 595.5 47 L 595.5 325" class="highcharts-grid-line" data-z-index="1" stroke-dasharray="none" fill="none"></path><path opacity="1" d="M 639.5 47 L 639.5 325" class="highcharts-grid-line" data-z-index="1" stroke-dasharray="none" fill="none"></path><path opacity="1" d="M 62.5 47 L 62.5 325" class="highcharts-grid-line" data-z-index="1" stroke-dasharray="none" fill="none"></path></g><g aria-hidden="true" data-z-index="1" class="highcharts-grid highcharts-yaxis-grid"><path opacity="1" d="M 63 325.5 L 640 325.5" class="highcharts-grid-line" data-z-index="1" stroke-dasharray="none" stroke-width="1" stroke="#e6e6e6" fill="none"></path><path opacity="1" d="M 63 256.5 L 640 256.5" class="highcharts-grid-line" data-z-index="1" stroke-dasharray="none" stroke-width="1" stroke="#e6e6e6" fill="none"></path><path opacity="1" d="M 63 186.5 L 640 186.5" class="highcharts-grid-line" data-z-index="1" stroke-dasharray="none" stroke-width="1" stroke="#e6e6e6" fill="none"></path><path opacity="1" d="M 63 117.5 L 640 117.5" class="highcharts-grid-line" data-z-index="1" stroke-dasharray="none" stroke-width="1" stroke="#e6e6e6" fill="none"></path><path opacity="1" d="M 63 46.5 L 640 46.5" class="highcharts-grid-line" data-z-index="1" stroke-dasharray="none" stroke-width="1" stroke="#e6e6e6" fill="none"></path></g><rect aria-hidden="true" height="278" width="577" y="47" x="63" data-z-index="1" class="highcharts-plot-border" fill="none"></rect><g aria-hidden="true" data-z-index="2" class="highcharts-axis highcharts-xaxis"><path d="M 63 325.5 L 640 325.5" data-z-index="7" stroke-width="1" stroke="#ccd6eb" class="highcharts-axis-line" fill="none"></path></g><g aria-hidden="true" data-z-index="2" class="highcharts-axis highcharts-yaxis"><text y="186" style="color: rgb(102, 102, 102); fill: rgb(102, 102, 102);" class="highcharts-axis-title" transform="translate(0,0) rotate(270 24.333881378173828 186)" text-anchor="middle" data-z-index="7" x="24.333881378173828">Value</text><path d="M 63 47 L 63 325" data-z-index="7" class="highcharts-axis-line" fill="none"></path></g><g aria-hidden="false" data-z-index="3" class="highcharts-series-group"><g aria-hidden="true" clip-path="url(#highcharts-z112a5k-1622-)" transform="translate(63,47) scale(1 1)" opacity="1" data-z-index="0.1" class="highcharts-series highcharts-series-0 highcharts-spline-series"><path stroke-linecap="round" stroke-linejoin="round" stroke-width="2" stroke="#6f58e9" data-z-index="1" class="highcharts-graph" d="M 22.192307692308 265.412585896 C 22.192307692308 265.412585896 48.823076923077 258.7796767130999 66.576923076923 253.904839697 C 84.3307692307698 249.03000268089988 93.2076923076932 246.59683667629977 110.96153846154 241.03840081549998 C 128.71538461538802 235.4799649546998 137.592307692312 232.57918392100072 155.34615384616 226.112660393 C 173.100000000004 219.64613686500076 181.976923076926 216.05851811979917 199.73076923077 208.70578317550002 C 217.48461538461802 201.35304823119918 226.361538461542 197.2525621729009 244.11538461539 189.3489856715 C 261.86923076923404 181.4454091701009 270.746153846156 177.39512225289906 288.5 169.1879006685 C 306.25384615384803 160.98067908409905 315.130769230772 157.34926387140104 332.88461538462 148.3128777495 C 350.63846153846396 139.27649162760102 359.515384615386 134.12411107359884 377.26923076923 124.00597005899999 C 395.02307692307795 113.88782904439886 403.900000000002 108.4037571828012 421.65384615385 97.72217267650001 C 439.407692307694 87.0405881702012 448.28461538461596 81.5678864390988 466.03846153846 70.5980475275 C 483.792307692308 59.628208615898785 492.66923076923206 50.362216734000825 510.42307692308 42.87297811849999 C 528.1769230769239 35.383739503000825 554.80769230769 33.15185445 554.80769230769 33.15185445" fill="none"></path></g><g style="outline: none;" aria-label="Urbanization, line 1 of 2 with 13 data points." tabindex="-1" role="region" aria-hidden="false" clip-path="none" transform="translate(63,47) scale(1 1)" opacity="1" data-z-index="0.1" class="highcharts-markers highcharts-series-0 highcharts-spline-series"><path style="outline: none;" aria-label="1965, 1,181,113,872. Urbanization." role="img" tabindex="-1" class="highcharts-point" opacity="1" d="M 22 269 A 4 4 0 1 1 22.003999999333335 268.9999980000002 Z" fill="#6f58e9"></path><path style="outline: none;" aria-label="1970, 1,346,692,954. Urbanization." role="img" tabindex="-1" class="highcharts-point" opacity="1" d="M 66 258 A 4 4 0 1 1 66.00399999933333 257.9999980000002 Z" fill="#6f58e9"></path><path style="outline: none;" aria-label="1975, 1,531,821,571. Urbanization." role="img" tabindex="-1" class="highcharts-point" opacity="1" d="M 110 245 A 4 4 0 1 1 110.00399999933333 244.99999800000018 Z" fill="#6f58e9"></path><path style="outline: none;" aria-label="1980, 1,746,580,426. Urbanization." role="img" tabindex="-1" class="highcharts-point" opacity="1" d="M 155 230 A 4 4 0 1 1 155.00399999933333 229.99999800000018 Z" fill="#6f58e9"></path><path style="outline: none;" aria-label="1985, 1,997,039,091. Urbanization." role="img" tabindex="-1" class="highcharts-point" opacity="1" d="M 199 213 A 4 4 0 1 1 199.00399999933333 212.99999800000018 Z" fill="#6f58e9"></path><path style="outline: none;" aria-label="1990, 2,275,554,163. Urbanization." role="img" tabindex="-1" class="highcharts-point" opacity="1" d="M 244 193 A 4 4 0 1 1 244.00399999933333 192.99999800000018 Z" fill="#6f58e9"></path><path style="outline: none;" aria-label="1995, 2,565,641,717. Urbanization." role="img" tabindex="-1" class="highcharts-point" opacity="1" d="M 288 173 A 4 4 0 1 1 288.00399999933336 172.99999800000018 Z" fill="#6f58e9"></path><path style="outline: none;" aria-label="2000, 2,866,001,759. Urbanization." role="img" tabindex="-1" class="highcharts-point" opacity="1" d="M 332 152 A 4 4 0 1 1 332.00399999933336 151.99999800000018 Z" fill="#6f58e9"></path><path style="outline: none;" aria-label="2005, 3,215,741,438. Urbanization." role="img" tabindex="-1" class="highcharts-point" opacity="1" d="M 377 128 A 4 4 0 1 1 377.00399999933336 127.99999800000016 Z" fill="#6f58e9"></path><path style="outline: none;" aria-label="2010, 3,593,925,573. Urbanization." role="img" tabindex="-1" class="highcharts-point" opacity="1" d="M 421 102 A 4 4 0 1 1 421.00399999933336 101.99999800000016 Z" fill="#6f58e9"></path><path style="outline: none;" aria-label="2015, 3,984,200,755. Urbanization." role="img" tabindex="-1" class="highcharts-point" opacity="1" d="M 466 75 A 4 4 0 1 1 466.00399999933336 74.99999800000016 Z" fill="#6f58e9"></path><path style="outline: none;" aria-label="2020, 4,383,122,617. Urbanization." role="img" tabindex="-1" class="highcharts-point" opacity="1" d="M 510 47 A 4 4 0 1 1 510.00399999933336 46.99999800000017 Z" fill="#6f58e9"></path><path style="outline: none;" aria-label="2022, 4,522,994,900. Urbanization." role="img" tabindex="-1" class="highcharts-point" opacity="1" d="M 554 37 A 4 4 0 1 1 554.0039999993334 36.99999800000017 Z" fill="#6f58e9"></path></g><g aria-hidden="true" clip-path="url(#highcharts-z112a5k-1622-)" transform="translate(63,47) scale(1 1)" opacity="1" data-z-index="0.1" class="highcharts-series highcharts-series-1 highcharts-spline-series"><path stroke-linecap="round" stroke-linejoin="round" stroke-width="2" stroke="#94d13d" data-z-index="1" class="highcharts-graph" d="M 22.192307692308 198.352143899 C 22.192307692308 198.352143899 48.823076923077 190.1429884075999 66.576923076923 184.710691822 C 84.3307692307698 179.2783952363999 93.2076923076932 176.08272250569982 110.96153846154 171.190660971 C 128.71538461538802 166.29859943629984 137.592307692312 164.6221439829005 155.34615384616 160.25038414850002 C 173.100000000004 155.8786243141005 181.976923076926 153.8036599889995 199.73076923077 149.331861799 C 217.48461538461802 144.8600636089995 226.361538461542 142.16837062870047 244.11538461539 137.8913931985 C 261.86923076923404 133.6144157683005 270.746153846156 131.5698555803996 288.5 127.94697464800001 C 306.25384615384803 124.32409371559959 315.130769230772 122.22593838030029 332.88461538462 119.7769885365 C 350.63846153846396 117.32803869270028 359.515384615386 117.05966775089985 377.26923076923 115.70222542900001 C 395.02307692307795 114.34478310709986 403.900000000002 114.13800609550015 421.65384615385 112.98977692700001 C 439.407692307694 111.84154775850013 448.28461538461596 110.8091531835999 466.03846153846 109.9610795865 C 483.792307692308 109.11300598939991 492.66923076923206 108.74940894150001 510.42307692308 108.74940894150001 C 528.1769230769239 108.74940894150001 554.80769230769 109.3820103125 554.80769230769 109.3820103125" fill="none"></path></g><g style="outline: none;" aria-label="Ruralization, line 2 of 2 with 13 data points." tabindex="-1" role="region" aria-hidden="false" clip-path="none" transform="translate(63,47) scale(1 1)" opacity="1" data-z-index="0.1" class="highcharts-markers highcharts-series-1 highcharts-spline-series"><path style="outline: none;" aria-label="1965, 2,146,012,318. Ruralization." role="img" tabindex="-1" class="highcharts-point" opacity="1" d="M 22 194 L 26 198 L 22 202 L 18 198 Z" fill="#94d13d"></path><path style="outline: none;" aria-label="1970, 2,342,292,204. Ruralization." role="img" tabindex="-1" class="highcharts-point" opacity="1" d="M 66 181 L 70 185 L 66 189 L 62 185 Z" fill="#94d13d"></path><path style="outline: none;" aria-label="1975, 2,536,825,022. Ruralization." role="img" tabindex="-1" class="highcharts-point" opacity="1" d="M 110 167 L 114 171 L 110 175 L 106 171 Z" fill="#94d13d"></path><path style="outline: none;" aria-label="1980, 2,694,239,077. Ruralization." role="img" tabindex="-1" class="highcharts-point" opacity="1" d="M 155 156 L 159 160 L 155 164 L 151 160 Z" fill="#94d13d"></path><path style="outline: none;" aria-label="1985, 2,851,340,118. Ruralization." role="img" tabindex="-1" class="highcharts-point" opacity="1" d="M 199 145 L 203 149 L 199 153 L 195 149 Z" fill="#94d13d"></path><path style="outline: none;" aria-label="1990, 3,015,951,177. Ruralization." role="img" tabindex="-1" class="highcharts-point" opacity="1" d="M 244 134 L 248 138 L 244 142 L 240 138 Z" fill="#94d13d"></path><path style="outline: none;" aria-label="1995, 3,159,036,336. Ruralization." role="img" tabindex="-1" class="highcharts-point" opacity="1" d="M 288 124 L 292 128 L 288 132 L 284 128 Z" fill="#94d13d"></path><path style="outline: none;" aria-label="2000, 3,276,590,093. Ruralization." role="img" tabindex="-1" class="highcharts-point" opacity="1" d="M 332 116 L 336 120 L 332 124 L 328 120 Z" fill="#94d13d"></path><path style="outline: none;" aria-label="2005, 3,335,219,778. Ruralization." role="img" tabindex="-1" class="highcharts-point" opacity="1" d="M 377 112 L 381 116 L 377 120 L 373 116 Z" fill="#94d13d"></path><path style="outline: none;" aria-label="2010, 3,374,247,814. Ruralization." role="img" tabindex="-1" class="highcharts-point" opacity="1" d="M 421 109 L 425 113 L 421 117 L 417 113 Z" fill="#94d13d"></path><path style="outline: none;" aria-label="2015, 3,417,826,193. Ruralization." role="img" tabindex="-1" class="highcharts-point" opacity="1" d="M 466 106 L 470 110 L 466 114 L 462 110 Z" fill="#94d13d"></path><path style="outline: none;" aria-label="2020, 3,435,260,303. Ruralization." role="img" tabindex="-1" class="highcharts-point" opacity="1" d="M 510 105 L 514 109 L 510 113 L 506 109 Z" fill="#94d13d"></path><path style="outline: none;" aria-label="2022, 3,426,158,125. Ruralization." role="img" tabindex="-1" class="highcharts-point" opacity="1" d="M 554 105 L 558 109 L 554 113 L 550 109 Z" fill="#94d13d"></path></g></g><text aria-hidden="true" y="24" style="color: rgb(51, 51, 51); font-size: 18px; fill: rgb(51, 51, 51);" data-z-index="4" class="highcharts-title" text-anchor="middle" x="325">Global Population</text><text aria-hidden="true" y="46" style="color: rgb(102, 102, 102); fill: rgb(102, 102, 102);" data-z-index="4" class="highcharts-subtitle" text-anchor="middle" x="325"></text><text aria-hidden="true" y="397" style="color: rgb(102, 102, 102); fill: rgb(102, 102, 102);" data-z-index="4" class="highcharts-caption" text-anchor="start" x="10"></text><g aria-hidden="true" transform="translate(220,359)" data-z-index="7" class="highcharts-legend highcharts-no-tooltip"><rect height="26" width="210" y="0" x="0" ry="0" rx="0" class="highcharts-legend-box" fill="none"></rect><g data-z-index="1"><g><g transform="translate(8,3)" data-z-index="1" class="highcharts-legend-item highcharts-spline-series highcharts-color-undefined highcharts-series-0"><path stroke-width="2" stroke="#6f58e9" class="highcharts-graph" d="M 0 11 L 16 11" fill="none"></path><path opacity="1" class="highcharts-point" d="M 8 15 A 4 4 0 1 1 8.003999999333336 14.999998000000167 Z" fill="#6f58e9"></path><text style="color: rgb(51, 51, 51); cursor: pointer; font-size: 12px; font-weight: bold; fill: rgb(51, 51, 51);" y="15" data-z-index="2" text-anchor="start" x="21">Urbanization</text></g><g transform="translate(117.43970489501953,3)" data-z-index="1" class="highcharts-legend-item highcharts-spline-series highcharts-color-undefined highcharts-series-1"><path stroke-width="2" stroke="#94d13d" class="highcharts-graph" d="M 0 11 L 16 11" fill="none"></path><path opacity="1" class="highcharts-point" d="M 8 7 L 12 11 L 8 15 L 4 11 Z" fill="#94d13d"></path><text style="color: rgb(51, 51, 51); cursor: pointer; font-size: 12px; font-weight: bold; fill: rgb(51, 51, 51);" data-z-index="2" text-anchor="start" y="15" x="21">Ruralization</text></g></g></g></g><g aria-hidden="true" data-z-index="7" class="highcharts-axis-labels highcharts-xaxis-labels"><text opacity="1" y="344" transform="translate(0,0)" text-anchor="middle" style="color: rgb(102, 102, 102); cursor: default; font-size: 11px; fill: rgb(102, 102, 102);" x="85.19230769231231">1965</text><text opacity="1" y="344" style="color: rgb(102, 102, 102); cursor: default; font-size: 11px; fill: rgb(102, 102, 102);" transform="translate(0,0)" text-anchor="middle" x="129.5769230769223">1970</text><text opacity="1" y="344" style="color: rgb(102, 102, 102); cursor: default; font-size: 11px; fill: rgb(102, 102, 102);" transform="translate(0,0)" text-anchor="middle" x="173.96153846154232">1975</text><text opacity="1" y="344" style="color: rgb(102, 102, 102); cursor: default; font-size: 11px; fill: rgb(102, 102, 102);" transform="translate(0,0)" text-anchor="middle" x="218.34615384615233">1980</text><text opacity="1" y="344" style="color: rgb(102, 102, 102); cursor: default; font-size: 11px; fill: rgb(102, 102, 102);" transform="translate(0,0)" text-anchor="middle" x="262.7307692307723">1985</text><text opacity="1" y="344" style="color: rgb(102, 102, 102); cursor: default; font-size: 11px; fill: rgb(102, 102, 102);" transform="translate(0,0)" text-anchor="middle" x="307.1153846153823">1990</text><text opacity="1" y="344" style="color: rgb(102, 102, 102); cursor: default; font-size: 11px; fill: rgb(102, 102, 102);" transform="translate(0,0)" text-anchor="middle" x="351.50000000000233">1995</text><text opacity="1" y="344" style="color: rgb(102, 102, 102); cursor: default; font-size: 11px; fill: rgb(102, 102, 102);" transform="translate(0,0)" text-anchor="middle" x="395.8846153846223">2000</text><text opacity="1" y="344" style="color: rgb(102, 102, 102); cursor: default; font-size: 11px; fill: rgb(102, 102, 102);" transform="translate(0,0)" text-anchor="middle" x="440.2692307692323">2005</text><text opacity="1" y="344" style="color: rgb(102, 102, 102); cursor: default; font-size: 11px; fill: rgb(102, 102, 102);" transform="translate(0,0)" text-anchor="middle" x="484.6538461538523">2010</text><text opacity="1" y="344" style="color: rgb(102, 102, 102); cursor: default; font-size: 11px; fill: rgb(102, 102, 102);" transform="translate(0,0)" text-anchor="middle" x="529.0384615384622">2015</text><text opacity="1" y="344" style="color: rgb(102, 102, 102); cursor: default; font-size: 11px; fill: rgb(102, 102, 102);" transform="translate(0,0)" text-anchor="middle" x="573.4230769230822">2020</text><text opacity="1" y="344" style="color: rgb(102, 102, 102); cursor: default; font-size: 11px; fill: rgb(102, 102, 102);" transform="translate(0,0)" text-anchor="middle" x="617.8076923076923">2022</text></g><g aria-hidden="true" data-z-index="7" class="highcharts-axis-labels highcharts-yaxis-labels"><text opacity="1" y="329" transform="translate(0,0)" text-anchor="end" style="color: rgb(102, 102, 102); cursor: default; font-size: 11px; fill: rgb(102, 102, 102);" x="48">1G</text><text opacity="1" y="260" style="color: rgb(102, 102, 102); cursor: default; font-size: 11px; fill: rgb(102, 102, 102);" transform="translate(0,0)" text-anchor="end" x="48">2G</text><text opacity="1" y="190" style="color: rgb(102, 102, 102); cursor: default; font-size: 11px; fill: rgb(102, 102, 102);" transform="translate(0,0)" text-anchor="end" x="48">3G</text><text opacity="1" y="121" style="color: rgb(102, 102, 102); cursor: default; font-size: 11px; fill: rgb(102, 102, 102);" transform="translate(0,0)" text-anchor="end" x="48">4G</text><text opacity="1" y="51" style="color: rgb(102, 102, 102); cursor: default; font-size: 11px; fill: rgb(102, 102, 102);" transform="translate(0,0)" text-anchor="end" x="48">5G</text></g><text aria-hidden="false" aria-label="Chart credits: Highcharts.com" style="cursor: pointer; color: rgb(153, 153, 153); font-size: 9px; fill: rgb(153, 153, 153);" y="395" data-z-index="8" text-anchor="end" class="highcharts-credits" x="640">Highcharts.com</text></svg>